# This file uses centimeters as units for non-parametric coordinates.

mtllib cube2.mtl
v -3.732040 -0.000000 7.444651
v 3.627430 -0.000000 7.444651
v -3.732040 6.134226 7.444651
v 3.627430 6.134226 7.444651
v -3.732040 6.134226 0.729452
v 3.627430 6.134226 0.729452
v -3.732040 -0.000000 0.729452
v 3.627430 -0.000000 0.729452
v -1.484679 8.504219 7.444651
v -0.052306 8.782970 7.444651
vt 0.375000 0.000000
vt 0.625000 0.000000
vt 0.375000 0.250000
vt 0.625000 0.250000
vt 0.375000 0.500000
vt 0.625000 0.500000
vt 0.375000 0.750000
vt 0.625000 0.750000
vt 0.375000 1.000000
vt 0.625000 1.000000
vt 0.875000 0.000000
vt 0.875000 0.250000
vt 0.125000 0.000000
vt 0.125000 0.250000
vt 0.500000 0.250000
vt 0.451342 0.250000
vn 0.000000 -1.000000 0.000000
vn 0.000000 -1.000000 0.000000
vn 0.000000 -1.000000 0.000000
vn 0.000000 -1.000000 0.000000
vn -0.000000 0.000000 1.000000
vn -0.000000 0.000000 1.000000
vn -0.000000 0.000000 1.000000
vn -0.000000 0.000000 1.000000
vn -0.000000 0.000000 1.000000
vn -0.000000 0.000000 1.000000
vn 0.000000 0.975562 -0.219723
vn 0.000000 0.975562 -0.219723
vn 0.000000 0.975562 -0.219723
vn 0.000000 0.975562 -0.219723
vn 0.000000 0.975562 -0.219723
vn 0.000000 0.975562 -0.219723
vn 0.000000 0.000000 -1.000000
vn 0.000000 0.000000 -1.000000
vn 0.000000 0.000000 -1.000000
vn 0.000000 0.000000 -1.000000
vn 1.000000 0.000000 0.000000
vn 1.000000 0.000000 0.000000
vn 1.000000 0.000000 0.000000
vn 1.000000 0.000000 0.000000
vn -1.000000 0.000000 0.000000
vn -1.000000 0.000000 0.000000
vn -1.000000 0.000000 0.000000
vn -1.000000 0.000000 0.000000
usemtl initialShadingGroup
f 7/7/1 8/8/2 2/10/3 1/9/4
f 3/3/5 1/1/6 2/2/7 4/4/8 10/15/9 9/16/10
f 5/5/11 3/3/12 9/16/13 10/15/14 4/4/15 6/6/16
f 7/7/17 5/5/18 6/6/19 8/8/20
f 4/4/21 2/2/22 8/11/23 6/12/24
f 5/14/25 7/13/26 1/1/27 3/3/28
